<?xml version="1.0" ?><!DOCTYPE svg  PUBLIC '-//W3C//DTD SVG 1.1//EN'  'http://www.w3.org/Graphics/SVG/1.1/DTD/svg11.dtd'><svg id="Layer_1" style="enable-background:new 0 0 76 76;" version="1.1" viewBox="0 0 76 76" xml:space="preserve" xmlns="http://www.w3.org/2000/svg" xmlns:xlink="http://www.w3.org/1999/xlink"><style type="text/css">
	.st0{fill:#90A358;}
	.st1{fill:#04B086;}
	.st2{fill:#FFBA00;}
	.st3{fill:#005DE1;}
	.st4{fill:#FF4175;}
	.st5{fill:#171715;}
	.st6{fill:#FFAC35;}
	.st7{fill:#AAC148;}
	.st8{fill:#0067FF;}
	.st9{fill:#00AEF0;}
	.st10{fill:#222A30;}
	.st11{fill:#FFFFFF;}
	.st12{fill:#0074D2;}
	.st13{fill:#D4D1D1;}
	.st14{fill:#01CB3E;}
	.st15{fill:#A6285F;}
	.st16{fill:#1587EA;}
	.st17{fill:#90B24C;}
	.st18{fill:#E65300;}
	.st19{fill:#475993;}
	.st20{fill:#FF007E;}
	.st21{fill:#F34A38;}
	.st22{fill:#333F40;}
	.st23{fill:#FF9414;}
	.st24{fill:#0090E1;}
	.st25{fill:#FC490B;}
	.st26{fill:url(#XMLID_10_);}
	.st27{fill:url(#XMLID_11_);}
	.st28{fill:url(#XMLID_12_);}
	.st29{fill:#00CE62;}
	.st30{fill:#0077B7;}
	.st31{fill:#00FD8D;}
	.st32{fill:#00E470;}
	.st33{fill:#00C967;}
	.st34{fill:#00AD6C;}
	.st35{fill:#EB4427;}
	.st36{fill:#002987;}
	.st37{fill:#0085CC;}
	.st38{fill:#00186A;}
	.st39{fill:#00A4C3;}
	.st40{fill:#FF4B30;}
	.st41{fill:#9F1121;}
	.st42{fill:#2950A1;}
	.st43{fill:#CF2217;}
	.st44{fill:#0088C3;}
	.st45{fill:#FF1A03;}
	.st46{fill:#00AAF2;}
	.st47{fill:#050505;}
	.st48{fill:url(#SVGID_1_);}
	.st49{fill:url(#SVGID_2_);}
	.st50{fill:url(#SVGID_3_);}
	.st51{fill:url(#SVGID_4_);}
	.st52{fill:url(#SVGID_5_);}
	.st53{fill:url(#SVGID_6_);}
	.st54{fill:url(#SVGID_7_);}
	.st55{fill:url(#SVGID_8_);}
	.st56{fill:url(#SVGID_9_);}
	.st57{fill:url(#SVGID_10_);}
	.st58{fill:url(#SVGID_11_);}
	.st59{fill:#00D95F;}
	.st60{fill:#FF4403;}
	.st61{fill:#518FE1;}
	.st62{fill:#2A445D;}
	.st63{fill:#76A9EA;}
	.st64{fill:#69B4E5;}
	.st65{fill:#7AD06D;}
	.st66{fill:#00769D;}
	.st67{fill:#DC0000;}
	.st68{fill:#F61C0D;}
</style><g><path class="st3" d="M68.3,1H7.7C4,1,1,4,1,7.7v60.6C1,72,4,75,7.7,75h60.6c3.7,0,6.7-3,6.7-6.7V7.7C75,4,72,1,68.3,1z M23.9,64.9   c0,1.1-0.9,1.9-1.9,1.9h-8.3c-1.1,0-1.9-0.9-1.9-1.9V30.1c0-1.1,0.9-1.9,1.9-1.9H22c1.1,0,1.9,0.9,1.9,1.9V64.9z M17.8,24.9   c-4.4,0-7.9-3.5-7.9-7.9s3.5-7.9,7.9-7.9s7.9,3.5,7.9,7.9S22.2,24.9,17.8,24.9z M67.2,65.1c0,1-0.8,1.8-1.8,1.8h-8.9   c-1,0-1.8-0.8-1.8-1.8V48.7c0-2.4,0.7-10.7-6.4-10.7c-5.5,0-6.6,5.6-6.8,8.2v18.8c0,1-0.8,1.8-1.8,1.8h-8.6c-1,0-1.8-0.8-1.8-1.8   V30c0-1,0.8-1.8,1.8-1.8h8.6c1,0,1.8,0.8,1.8,1.8v3c2-3.1,5.1-5.4,11.5-5.4c14.2,0,14.2,13.3,14.2,20.6L67.2,65.1L67.2,65.1z"/></g></svg>